<svg width="62" height="62" viewBox="0 0 62 62" fill="none" xmlns="http://www.w3.org/2000/svg">
<path d="M58.125 17.6022V44.4075C58.1224 46.7602 57.1867 49.0158 55.5231 50.6794C53.8595 52.343 51.6039 53.2787 49.2513 53.2812H12.7584C10.4032 53.2787 8.14514 52.3419 6.47973 50.6765C4.81432 49.0111 3.87756 46.7531 3.875 44.3978V17.6022C3.87756 15.2469 4.81432 12.9889 6.47973 11.3235C8.14514 9.65807 10.4032 8.72131 12.7584 8.71875H49.2416C51.5968 8.72131 53.8549 9.65807 55.5203 11.3235C57.1857 12.9889 58.1224 15.2469 58.125 17.6022ZM28.5781 41.2978L39.8059 34.5166C40.4196 34.1456 40.9271 33.6226 41.2794 32.9981C41.6317 32.3735 41.8168 31.6686 41.8168 30.9516C41.8168 30.2345 41.6317 29.5296 41.2794 28.9051C40.9271 28.2805 40.4196 27.7575 39.8059 27.3866L28.5781 20.7022C27.9473 20.3231 27.2272 20.1182 26.4913 20.1087C25.7554 20.0991 25.0301 20.2851 24.3897 20.6477C23.7492 21.0103 23.2165 21.5364 22.8461 22.1724C22.4757 22.8083 22.2807 23.5312 22.2812 24.2672V37.7812C22.2743 38.5194 22.4669 39.2457 22.8386 39.8834C23.2103 40.5212 23.7474 41.0467 24.3931 41.4044C25.017 41.7568 25.7207 41.9436 26.4372 41.9469C27.1972 41.9333 27.9385 41.7086 28.5781 41.2978ZM26.5825 24.025L37.8103 30.8062C37.8525 30.8311 37.8875 30.8664 37.9118 30.9089C37.9361 30.9514 37.9489 30.9995 37.9489 31.0484C37.9489 31.0974 37.9361 31.1455 37.9118 31.1879C37.8875 31.2304 37.8525 31.2658 37.8103 31.2906L26.5825 38.0719C26.5362 38.1013 26.4822 38.1164 26.4274 38.1155C26.3725 38.1146 26.3191 38.0976 26.2738 38.0667C26.2285 38.0358 26.1932 37.9923 26.1723 37.9416C26.1514 37.8909 26.1458 37.8351 26.1562 37.7812V24.2672C26.1541 24.2157 26.1666 24.1647 26.1923 24.1201C26.218 24.0755 26.2559 24.0392 26.3016 24.0153C26.346 24.0034 26.3928 24.0034 26.4372 24.0153C26.4852 24.0005 26.5369 24.0039 26.5825 24.025ZM14.5312 26.1562V20.3438C14.5312 19.8299 14.3271 19.3371 13.9638 18.9737C13.6004 18.6104 13.1076 18.4062 12.5938 18.4062C12.0799 18.4062 11.5871 18.6104 11.2237 18.9737C10.8604 19.3371 10.6562 19.8299 10.6562 20.3438V26.1562C10.6562 26.6701 10.8604 27.1629 11.2237 27.5263C11.5871 27.8896 12.0799 28.0938 12.5938 28.0938C13.1076 28.0938 13.6004 27.8896 13.9638 27.5263C14.3271 27.1629 14.5312 26.6701 14.5312 26.1562Z" fill="#0478ED"/>
</svg>
