<svg width="59" height="59" viewBox="0 0 59 59" fill="none" xmlns="http://www.w3.org/2000/svg">
<path d="M53.5425 47.6671C53.7391 49.0681 53.3212 50.4942 52.4116 51.5758C51.4529 52.6575 50.1008 53.2721 48.675 53.2721C48.257 53.2721 47.8637 53.2229 47.4704 53.1246C43.5616 52.1413 40.12 49.7321 37.8829 46.4379C30.8766 46.8804 23.6983 46.7575 16.6675 46.1183C13.9633 45.8479 11.505 44.9383 9.56288 43.4879C7.47329 41.9392 6.09663 39.825 5.67871 37.5633C5.16246 34.8592 4.91663 32.155 4.91663 29.5C4.91663 26.845 5.16246 24.1408 5.67871 21.4367C6.09663 19.175 7.47329 17.0608 9.56288 15.5121C11.505 14.0617 13.9633 13.1521 16.6429 12.9063C25.1979 12.095 33.8266 12.095 42.3325 12.8817C45.0366 13.1521 47.495 14.0617 49.437 15.5121C51.5266 17.0608 52.9033 19.175 53.3212 21.4367C54.3537 26.7713 54.3537 32.2288 53.3212 37.5879C53.1491 38.4483 52.8541 39.2596 52.4608 40.0463L53.5425 47.6671Z" fill="#0478ED"/>
<path d="M29.4999 27.0417H19.6666C18.3079 27.0417 17.2083 25.9421 17.2083 24.5833C17.2083 23.2246 18.3079 22.125 19.6666 22.125H29.4999C30.8586 22.125 31.9583 23.2246 31.9583 24.5833C31.9583 25.9421 30.8586 27.0417 29.4999 27.0417ZM39.3333 36.875H29.4999C28.1412 36.875 27.0416 35.7754 27.0416 34.4167C27.0416 33.0579 28.1412 31.9583 29.4999 31.9583H39.3333C40.692 31.9583 41.7916 33.0579 41.7916 34.4167C41.7916 35.7754 40.692 36.875 39.3333 36.875ZM36.8749 27.0392C35.5184 27.0392 34.419 25.9396 34.4166 24.5833C34.4141 23.2246 35.5137 22.125 36.8725 22.1225L39.3308 22.1201H39.3333C40.6898 22.1201 41.7891 23.2197 41.7916 24.576C41.794 25.9347 40.6944 27.0343 39.3357 27.0368L36.8774 27.0392H36.8749ZM19.6666 36.8725C18.3101 36.8725 17.2107 35.7729 17.2083 34.4167C17.2058 33.0579 18.3054 31.9583 19.6641 31.9559L22.1225 31.9534H22.1249C23.4814 31.9534 24.5808 33.053 24.5833 34.4093C24.5857 35.768 23.4861 36.8676 22.1274 36.8701L19.669 36.8725H19.6666Z" fill="#FFF0F0"/>
</svg>
