<svg width="55" height="55" viewBox="0 0 55 55" fill="none" xmlns="http://www.w3.org/2000/svg">
<path d="M48.125 8.59375H6.875C5.50748 8.59375 4.19597 9.137 3.22898 10.104C2.262 11.071 1.71875 12.3825 1.71875 13.75V39.5313C1.71965 39.8778 1.82528 40.216 2.02179 40.5014C2.21829 40.7868 2.49649 41.0062 2.81988 41.1307C3.14327 41.2553 3.49675 41.2791 3.83394 41.1992C4.17114 41.1192 4.47629 40.9393 4.70938 40.6828L18.7172 25.0766L28.3422 38.9813C28.4752 39.1719 28.6456 39.3335 28.8429 39.4564C29.0402 39.5793 29.2604 39.6609 29.4902 39.6962C29.7199 39.7316 29.9545 39.7199 30.1796 39.662C30.4048 39.6041 30.6158 39.5012 30.8 39.3594L41.1125 31.4703L50.3594 40.8719C50.5975 41.1056 50.8985 41.265 51.2256 41.3306C51.5528 41.3962 51.892 41.3651 52.2018 41.2412C52.5116 41.1173 52.7786 40.9059 52.9703 40.6327C53.162 40.3596 53.27 40.0366 53.2812 39.7031V13.75C53.2812 12.3825 52.738 11.071 51.771 10.104C50.804 9.137 49.4925 8.59375 48.125 8.59375Z" fill="#56AAFF"/>
<path d="M52.7828 38.5L42.4703 28.0156C42.1759 27.7179 41.7829 27.5379 41.3652 27.5094C40.9475 27.481 40.5337 27.606 40.2016 27.8609L28.7203 36.6781C28.3724 36.9475 28.141 37.34 28.0738 37.7749C28.0067 38.2098 28.1089 38.6539 28.3594 39.0156L32.9656 45.6672C33.1236 45.8949 33.3342 46.081 33.5796 46.2097C33.825 46.3384 34.0979 46.4058 34.375 46.4063H48.125C49.4925 46.4063 50.804 45.863 51.771 44.896C52.738 43.929 53.2813 42.6175 53.2813 41.25V39.7031C53.2794 39.2522 53.1004 38.8201 52.7828 38.5Z" fill="#0478ED"/>
<path d="M35.7843 43.7078L20.3156 21.364C20.1681 21.1494 19.9738 20.971 19.7473 20.8425C19.5208 20.7139 19.268 20.6385 19.0081 20.622C18.7482 20.6054 18.488 20.6481 18.247 20.7469C18.006 20.8457 17.7906 20.998 17.6171 21.1922L2.14838 38.3797C1.8681 38.6974 1.71508 39.1075 1.71869 39.5312V41.25C1.71869 42.6175 2.26194 43.929 3.22892 44.896C4.19591 45.863 5.50742 46.4062 6.87494 46.4062H34.3749C34.6885 46.4057 34.9959 46.3194 35.264 46.1567C35.532 45.994 35.7504 45.7611 35.8956 45.4832C36.0407 45.2053 36.1071 44.8929 36.0875 44.58C36.0679 44.267 35.963 43.9654 35.7843 43.7078Z" fill="#0478ED"/>
<path d="M34.375 24.0625C36.2735 24.0625 37.8125 22.5235 37.8125 20.625C37.8125 18.7265 36.2735 17.1875 34.375 17.1875C32.4765 17.1875 30.9375 18.7265 30.9375 20.625C30.9375 22.5235 32.4765 24.0625 34.375 24.0625Z" fill="white"/>
</svg>
