<svg width="43" height="43" viewBox="0 0 43 43" fill="none" xmlns="http://www.w3.org/2000/svg">
<path d="M14.1094 21.5C14.1094 22.9843 15.3126 24.1875 16.7969 24.1875C18.2811 24.1875 19.4844 22.9843 19.4844 21.5C19.4844 20.0157 18.2811 18.8125 16.7969 18.8125C15.3126 18.8125 14.1094 20.0157 14.1094 21.5Z" fill="#BABABA"/>
<path d="M14.1094 30.5703C14.1094 32.0546 15.3126 33.2578 16.7969 33.2578C18.2811 33.2578 19.4844 32.0546 19.4844 30.5703C19.4844 29.086 18.2811 27.8828 16.7969 27.8828C15.3126 27.8828 14.1094 29.086 14.1094 30.5703Z" fill="#BABABA"/>
<path d="M14.1094 12.4297C14.1094 13.914 15.3126 15.1172 16.7969 15.1172C18.2811 15.1172 19.4844 13.914 19.4844 12.4297C19.4844 10.9454 18.2811 9.74219 16.7969 9.74219C15.3126 9.74219 14.1094 10.9454 14.1094 12.4297Z" fill="#BABABA"/>
<path d="M23.1797 21.5C23.1797 22.9843 24.3829 24.1875 25.8672 24.1875C27.3515 24.1875 28.5547 22.9843 28.5547 21.5C28.5547 20.0157 27.3515 18.8125 25.8672 18.8125C24.3829 18.8125 23.1797 20.0157 23.1797 21.5Z" fill="#BABABA"/>
<path d="M23.1797 30.5703C23.1797 32.0546 24.3829 33.2578 25.8672 33.2578C27.3515 33.2578 28.5547 32.0546 28.5547 30.5703C28.5547 29.086 27.3515 27.8828 25.8672 27.8828C24.3829 27.8828 23.1797 29.086 23.1797 30.5703Z" fill="#BABABA"/>
<path d="M23.1797 12.4297C23.1797 13.914 24.3829 15.1172 25.8672 15.1172C27.3515 15.1172 28.5547 13.914 28.5547 12.4297C28.5547 10.9454 27.3515 9.74219 25.8672 9.74219C24.3829 9.74219 23.1797 10.9454 23.1797 12.4297Z" fill="#BABABA"/>
</svg>
