<svg width="23" height="24" viewBox="0 0 23 24" fill="none" xmlns="http://www.w3.org/2000/svg">
<g clip-path="url(#clip0_86_305)">
<path d="M12.4583 7.20829H10.5416V11.0416H6.70829V12.9583H10.5416V16.7916H12.4583V12.9583H16.2916V11.0416H12.4583V7.20829ZM11.5 2.41663C6.20517 2.41663 1.91663 6.70517 1.91663 12C1.91663 17.2948 6.20517 21.5833 11.5 21.5833C16.7948 21.5833 21.0833 17.2948 21.0833 12C21.0833 6.70517 16.7948 2.41663 11.5 2.41663ZM11.5 19.6666C7.27371 19.6666 3.83329 16.2262 3.83329 12C3.83329 7.77371 7.27371 4.33329 11.5 4.33329C15.7262 4.33329 19.1666 7.77371 19.1666 12C19.1666 16.2262 15.7262 19.6666 11.5 19.6666Z" fill="#696969"/>
</g>
<defs>
<clipPath id="clip0_86_305">
<rect width="23" height="23" fill="white" transform="translate(0 0.5)"/>
</clipPath>
</defs>
</svg>
