<svg width="19" height="19" viewBox="0 0 19 19" fill="none" xmlns="http://www.w3.org/2000/svg">
<g clip-path="url(#clip0_7_35)">
<path d="M17.9765 16.857L13.4836 12.3641C14.4945 11.1024 15.0442 9.53335 15.0416 7.91667C15.0416 3.98169 11.8518 0.791672 7.91663 0.791672C3.98165 0.791672 0.791626 3.98169 0.791626 7.91667C0.791626 11.8517 3.98165 15.0417 7.91663 15.0417C9.59892 15.0417 11.145 14.4586 12.364 13.4835L16.8569 17.9764C16.9303 18.05 17.0176 18.1084 17.1136 18.1482C17.2097 18.188 17.3127 18.2084 17.4166 18.2083C17.5732 18.2083 17.7263 18.1619 17.8564 18.0749C17.9866 17.988 18.0881 17.8643 18.148 17.7197C18.208 17.5751 18.2237 17.4159 18.1931 17.2623C18.1626 17.1088 18.0872 16.9677 17.9765 16.857ZM7.91663 13.4583C4.85604 13.4583 2.37496 10.9773 2.37496 7.91667C2.37496 4.85609 4.85604 2.37501 7.91663 2.37501C10.9774 2.37501 13.4583 4.85609 13.4583 7.91667C13.4583 10.9773 10.9774 13.4583 7.91663 13.4583Z" fill="black"/>
</g>
<defs>
<clipPath id="clip0_7_35">
<rect width="19" height="19" fill="white"/>
</clipPath>
</defs>
</svg>
