<svg width="66" height="66" viewBox="0 0 66 66" fill="none" xmlns="http://www.w3.org/2000/svg">
<path d="M59.103 29.3436C58.2907 28.5358 57.1928 28.0806 56.0472 28.0764C54.8988 28.0764 53.8164 28.5252 52.9914 29.3436L51.183 31.152V11.2662C51.183 9.61623 49.8432 8.27643 48.1932 8.27643H21.8262C20.1762 8.27643 18.8364 9.61623 18.8364 11.2662V32.3532C18.8364 32.8878 18.9882 33.3828 19.2324 33.8184C17.6484 34.3266 16.1898 35.2044 14.982 36.4122L12.1704 39.2238C11.2266 38.6892 9.95281 38.8014 9.16741 39.5868L5.92681 42.8274C5.83422 42.9189 5.7607 43.0278 5.71053 43.1479C5.66036 43.268 5.63452 43.3969 5.63452 43.527C5.63452 43.6572 5.66036 43.786 5.71053 43.9061C5.7607 44.0262 5.83422 44.1352 5.92681 44.2266C6.31621 44.616 6.94321 44.616 7.32601 44.2266L10.5666 40.986C10.6123 40.9397 10.6668 40.9028 10.7268 40.8777C10.7869 40.8526 10.8513 40.8396 10.9164 40.8396C10.9815 40.8396 11.046 40.8526 11.106 40.8777C11.1661 40.9028 11.2205 40.9397 11.2662 40.986L22.3674 52.0872C22.5588 52.2786 22.5588 52.5954 22.3674 52.7868L19.1268 56.0274C19.0342 56.1189 18.9607 56.2278 18.9105 56.3479C18.8604 56.468 18.8345 56.5969 18.8345 56.727C18.8345 56.8572 18.8604 56.986 18.9105 57.1061C18.9607 57.2262 19.0342 57.3352 19.1268 57.4266C19.3182 57.618 19.5756 57.717 19.8264 57.717C20.0772 57.717 20.3346 57.618 20.526 57.4266L23.7666 54.186C24.585 53.3676 24.6972 52.1268 24.1362 51.1764L24.8886 50.424C25.2978 50.0148 25.8324 49.797 26.4066 49.797H40.9728C43.7382 49.797 46.4244 48.6552 48.3384 46.6554L59.1492 35.3958C60.7794 33.7194 60.753 31.0002 59.103 29.3436ZM43.9362 35.3364H46.9986L44.5764 37.7586C44.5764 37.6992 44.583 37.6464 44.583 37.587C44.583 36.762 44.3388 35.9964 43.9362 35.3364ZM37.323 10.2564V16.4472L35.6334 15.0942C35.4552 14.949 35.2308 14.8764 35.013 14.8764C34.7952 14.8764 34.5774 14.949 34.3926 15.0942L32.703 16.4472V10.2564H37.323ZM20.823 32.3532V11.2662C20.823 10.7118 21.2718 10.2564 21.8328 10.2564H30.723V18.5064C30.723 18.8892 30.9408 19.2324 31.284 19.3974C31.6272 19.5624 32.0364 19.5162 32.3334 19.2786L35.013 17.1336L37.6926 19.2786C37.8708 19.4238 38.0886 19.4964 38.313 19.4964C38.5753 19.4954 38.8265 19.3907 39.0119 19.2053C39.1973 19.0199 39.302 18.7687 39.303 18.5064V10.2564H48.1932C48.7476 10.2564 49.203 10.7052 49.203 11.2662V32.3532C49.203 32.9076 48.7542 33.363 48.1932 33.363H40.9728C40.748 33.3265 40.5208 33.3066 40.293 33.3036H22.4994C22.2156 33.3036 21.9318 33.3234 21.648 33.3432C21.1794 33.2574 20.823 32.8482 20.823 32.3532ZM57.7302 34.0296L46.9194 45.2892C46.1499 46.0885 45.2275 46.7248 44.207 47.1602C43.1866 47.5956 42.0889 47.8212 40.9794 47.8236H26.4132C25.311 47.8236 24.2748 48.2526 23.4894 49.0314L22.7964 49.7244L13.6422 40.557L16.3878 37.8114C17.82 36.3792 19.6614 35.5146 21.648 35.3232C21.7074 35.3298 21.7668 35.343 21.8262 35.343H40.7946C41.8242 35.574 42.603 36.4914 42.603 37.5936C42.603 38.8146 41.6526 39.8046 40.4514 39.8904C40.3458 39.897 40.2336 39.9036 40.128 39.9036H30.393C29.8452 39.9036 29.403 40.3458 29.403 40.8936C29.403 41.4414 29.8452 41.8836 30.393 41.8836H40.293C40.4646 41.8836 40.6362 41.8704 40.8012 41.8506C42.5634 41.6922 44.2068 40.9332 45.474 39.666L54.384 30.7494C54.8328 30.3072 55.4202 30.0564 56.0472 30.0564C56.661 30.0564 57.2682 30.3072 57.7038 30.7428C58.5948 31.6404 58.6146 33.1122 57.7302 34.0296ZM24.123 29.0664C24.123 28.5186 24.5652 28.0764 25.113 28.0764H27.753C28.3008 28.0764 28.743 28.5186 28.743 29.0664C28.743 29.6142 28.3008 30.0564 27.753 30.0564H25.113C24.5652 30.0564 24.123 29.6142 24.123 29.0664ZM24.123 25.1064C24.123 24.5586 24.5652 24.1164 25.113 24.1164H30.393C30.9408 24.1164 31.383 24.5586 31.383 25.1064C31.383 25.6542 30.9408 26.0964 30.393 26.0964H25.113C24.5652 26.0964 24.123 25.6542 24.123 25.1064Z" fill="#0478ED"/>
</svg>
